<svg xmlns="http://www.w3.org/2000/svg" xmlns:xlink="http://www.w3.org/1999/xlink" xmlns:lucid="lucid" width="1300" height="1200">
  <g transform="translate(0 0)" lucid:page-tab-id="0_0">
    <path d="M597.53 187.45c0-2.77 2.24-5 5-5h150c2.76 0 5 2.23 5 5v110c0 2.76-2.24 5-5 5h-150c-2.76 0-5-2.24-5-5z" stroke="#333" stroke-width="2" fill="#fff"/>
    <use xlink:href="#a" transform="matrix(1,0,0,1,602.5325000000003,187.44617274832004) translate(17.81481481481481 48.59722222222222)"/>
    <use xlink:href="#b" transform="matrix(1,0,0,1,602.5325000000003,187.44617274832004) translate(80.92592592592592 48.59722222222222)"/>
    <use xlink:href="#c" transform="matrix(1,0,0,1,602.5325000000003,187.44617274832004) translate(20.629629629629626 69.93055555555556)"/>
    <use xlink:href="#d" transform="matrix(1,0,0,1,602.5325000000003,187.44617274832004) translate(93.5679012345679 69.93055555555556)"/>
    <path d="M677.53 303.95v76.12" stroke="#333" fill="none"/>
    <path d="M678.03 303.96h-1v-.5h1z" fill="#333"/>
    <path d="M677.53 394.83l-4.63-14.26h9.27z" stroke="#333" fill="#333"/>
    <path d="M673.53 399.7c2.2-1.64 5.8-1.64 8 0l87.4 65.56c2.2 1.66 2.2 4.34 0 6l-87.4 65.55c-2.2 1.66-5.8 1.66-8 0l-87.4-65.54c-2.2-1.66-2.2-4.34 0-6z" stroke="#333" stroke-width="4" fill="#fff"/>
    <use xlink:href="#e" transform="matrix(1,0,0,1,586.5752691910598,401.151092193302) translate(49.59759259259259 60.62847222222222)"/>
    <use xlink:href="#f" transform="matrix(1,0,0,1,586.5752691910598,401.151092193302) translate(89.99265432098765 60.62847222222222)"/>
    <use xlink:href="#g" transform="matrix(1,0,0,1,586.5752691910598,401.151092193302) translate(107.72104938271605 60.62847222222222)"/>
    <use xlink:href="#h" transform="matrix(1,0,0,1,586.5752691910598,401.151092193302) translate(59.44944444444444 81.96180555555557)"/>
    <path d="M725.53 702.02c17.68 0 32 17.9 32 40s-14.32 40-32 40h-96c-17.67 0-32-17.9-32-40s14.33-40 32-40z" stroke="#333" fill="#fff"/>
    <use xlink:href="#i" transform="matrix(1,0,0,1,602.5325000000003,707.0245406890796) translate(11.850000000000001 27.525)"/>
    <use xlink:href="#j" transform="matrix(1,0,0,1,602.5325000000003,707.0245406890796) translate(51.2 27.525)"/>
    <use xlink:href="#k" transform="matrix(1,0,0,1,602.5325000000003,707.0245406890796) translate(85.19999999999999 27.525)"/>
    <use xlink:href="#l" transform="matrix(1,0,0,1,602.5325000000003,707.0245406890796) translate(56.025 49.125)"/>
    <path d="M675.57 685.14h-1V631.6h1zm2.46-75.14h-1v-69.43h1z" fill="#333"/>
    <path d="M678.03 540.58h-1V540l.5.07.5-.07zM675.07 699.9l-4.64-14.26h9.27z" fill="#333"/>
    <path d="M675.07 701.52l-5.33-16.38h10.65zm-3.95-15.38l3.95 12.15 3.94-12.16z" fill="#333"/>
    <use xlink:href="#m" transform="matrix(1,0,0,1,639.7937500974375,609.9971530988134) translate(0.005000000000002558 14.4)"/>
    <use xlink:href="#n" transform="matrix(1,0,0,1,639.7937500974375,609.9971530988134) translate(72.01500000000001 14.4)"/>
    <path d="M1047.48 686.82c3.53-2.65 9.26-2.65 12.8 0l67.2 50.4c3.53 2.66 3.53 6.95 0 9.6l-67.2 50.4c-3.54 2.66-9.27 2.66-12.8 0l-67.2-50.4c-3.54-2.65-3.54-6.94 0-9.6z" stroke="#333" fill="#fff"/>
    <use xlink:href="#o" transform="matrix(1,0,0,1,978.8753811944091,687.0245406890796) translate(33.08 48.775)"/>
    <use xlink:href="#p" transform="matrix(1,0,0,1,978.8753811944091,687.0245406890796) translate(73.98 48.775)"/>
    <use xlink:href="#q" transform="matrix(1,0,0,1,978.8753811944091,687.0245406890796) translate(91.93 48.775)"/>
    <use xlink:href="#r" transform="matrix(1,0,0,1,978.8753811944091,687.0245406890796) translate(51.55499999999999 70.375)"/>
    <path d="M299.72 666.82c3.54-2.65 9.27-2.65 12.8 0l67.2 50.4c3.54 2.66 3.54 6.95 0 9.6l-67.2 50.4c-3.53 2.66-9.26 2.66-12.8 0l-67.2-50.4c-3.53-2.65-3.53-6.94 0-9.6z" stroke="#333" fill="#fff"/>
    <use xlink:href="#o" transform="matrix(1,0,0,1,231.1246188055909,667.0245406890796) translate(33.08 48.775)"/>
    <use xlink:href="#p" transform="matrix(1,0,0,1,231.1246188055909,667.0245406890796) translate(73.98 48.775)"/>
    <use xlink:href="#q" transform="matrix(1,0,0,1,231.1246188055909,667.0245406890796) translate(91.93 48.775)"/>
    <use xlink:href="#s" transform="matrix(1,0,0,1,231.1246188055909,667.0245406890796) translate(32.504999999999995 70.375)"/>
    <use xlink:href="#n" transform="matrix(1,0,0,1,231.1246188055909,667.0245406890796) translate(116.505 70.375)"/>
    <path d="M387 468.76h-68.84l-3.02.4-2.75 1.14-2.4 1.83-1.84 2.4-1.14 2.75-.4 3v167.77h-1V480.23l.43-3.2 1.24-3 1.98-2.6 2.6-2 3-1.25 3.2-.42H387zm195.16 0H438v-1h144.16zM582.66 468.76h-.5v-1h.5zM306.12 662.82l-4.63-14.27h9.26z" fill="#333"/>
    <path d="M306.12 664.44l-5.32-16.4h10.65zm-3.94-15.4l3.94 12.16 3.95-12.15z" fill="#333"/>
    <use xlink:href="#t" transform="matrix(1,0,0,1,387.00006533004034,457.4595153000074) translate(0.004999999999999005 14.4)"/>
    <path d="M1045.12 468.18l3 1.24 2.6 2 2 2.6 1.23 3 .43 3.2v187.83h-1V480.3l-.4-3.02-1.14-2.76-1.84-2.4-2.4-1.82-2.74-1.15-3.02-.4h-77.17v-1h77.24zm-272.22.58v-1h145.87v1z" fill="#333"/>
    <path d="M772.9 468.76h-.5v-1h.5zM1053.88 682.82l-4.64-14.27h9.27z" fill="#333"/>
    <path d="M1053.88 684.44l-5.33-16.4h10.65zm-3.95-15.4l3.95 12.16 3.94-12.15z" fill="#333"/>
    <use xlink:href="#u" transform="matrix(1,0,0,1,918.7652654240069,457.4595152527105) translate(0.004999999999999005 14.4)"/>
    <path d="M180.3 869.5c3.53-2.66 9.26-2.66 12.8 0l67.2 50.4c3.53 2.64 3.53 6.94 0 9.6l-67.2 50.4c-3.54 2.64-9.27 2.64-12.8 0l-67.2-50.4c-3.54-2.66-3.54-6.96 0-9.6z" stroke="#333" fill="#fff"/>
    <use xlink:href="#v" transform="matrix(1,0,0,1,111.69488564168569,869.6887865311) translate(61.03 24.7125)"/>
    <use xlink:href="#w" transform="matrix(1,0,0,1,111.69488564168569,869.6887865311) translate(34.55499999999999 46.3125)"/>
    <use xlink:href="#x" transform="matrix(1,0,0,1,111.69488564168569,869.6887865311) translate(80.505 46.3125)"/>
    <use xlink:href="#y" transform="matrix(1,0,0,1,111.69488564168569,869.6887865311) translate(24.554999999999996 67.91250000000001)"/>
    <use xlink:href="#z" transform="matrix(1,0,0,1,111.69488564168569,869.6887865311) translate(81.505 67.91250000000001)"/>
    <use xlink:href="#q" transform="matrix(1,0,0,1,111.69488564168569,869.6887865311) translate(100.45500000000001 67.91250000000001)"/>
    <use xlink:href="#A" transform="matrix(1,0,0,1,111.69488564168569,869.6887865311) translate(60.005 89.51250000000002)"/>
    <path d="M514.12 904.7c17.68 0 32 17.9 32 40 0 22.08-14.32 40-32 40h-96c-17.67 0-32-17.92-32-40 0-22.1 14.33-40 32-40z" stroke="#333" fill="#fff"/>
    <use xlink:href="#i" transform="matrix(1,0,0,1,391.12461880559084,909.6887865311) translate(11.850000000000001 27.525)"/>
    <use xlink:href="#j" transform="matrix(1,0,0,1,391.12461880559084,909.6887865311) translate(51.2 27.525)"/>
    <use xlink:href="#k" transform="matrix(1,0,0,1,391.12461880559084,909.6887865311) translate(85.19999999999999 27.525)"/>
    <use xlink:href="#l" transform="matrix(1,0,0,1,391.12461880559084,909.6887865311) translate(56.025 49.125)"/>
    <path d="M433.78 871.16l.4 3 1.14 2.77 1.84 2.4 2.4 1.82 2.74 1.14 3.02.4h16.27l3.15 1.1 1.75 2.85.12 1.1-1 .1-.1-.87-1.43-2.34-2.68-.95h-16.17l-3.2-.43-3-1.24-2.6-2-2-2.6-1.24-3-.42-3.2v-56.16h1zm-9.25-149.2l3 1.23 2.6 1.98 2 2.6 1.23 3 .42 3.2v59.5h-1v-59.42l-.4-3.02-1.13-2.75-1.84-2.4-2.38-1.84-2.75-1.14-3.02-.4h-37.98v-1h38.05zM383.28 722.52h-.54l.05-1h.48zM466.12 902.57l-4.63-14.27h9.26z" fill="#333"/>
    <path d="M466.12 904.2l-5.32-16.4h10.65zm-3.94-15.4l3.94 12.15 3.95-12.15z" fill="#333"/>
    <use xlink:href="#B" transform="matrix(1,0,0,1,404.38495234279435,793.466780775524) translate(0.004999999999999005 14.4)"/>
    <path d="M187.2 807.15v43.57h-1v-43.64l.17-1.32h1zm41.78-84.63h-8.46l-3.02.4-2.76 1.14-2.4 1.84-1.82 2.4-1.14 2.74-.4 3.02v50.1h-1V734l.42-3.22 1.25-3 2-2.6 2.6-2 3-1.23 3.2-.43h8.53z" fill="#333"/>
    <path d="M229.46 722.52h-.5v-1h.54zM186.7 865.48l-4.64-14.26h9.27z" fill="#333"/>
    <path d="M186.7 867.1l-5.33-16.38h10.65zm-3.95-15.38l3.94 12.15 3.94-12.15z" fill="#333"/>
    <use xlink:href="#C" transform="matrix(1,0,0,1,171.97871740031576,784.1579300003979) translate(0.005000000000002558 14.4)"/>
    <use xlink:href="#n" transform="matrix(1,0,0,1,171.97871740031576,784.1579300003979) translate(72.01500000000001 14.4)"/>
    <path d="M354.12 1067.35c17.68 0 32 17.9 32 40s-14.32 40-32 40h-96c-17.67 0-32-17.9-32-40s14.33-40 32-40z" stroke="#333" fill="#fff"/>
    <use xlink:href="#D" transform="matrix(1,0,0,1,231.12461880559084,1072.3530323731206) translate(10.050000000000011 27.525)"/>
    <use xlink:href="#E" transform="matrix(1,0,0,1,231.12461880559084,1072.3530323731206) translate(56.40000000000001 27.525)"/>
    <use xlink:href="#F" transform="matrix(1,0,0,1,231.12461880559084,1072.3530323731206) translate(98 27.525)"/>
    <use xlink:href="#G" transform="matrix(1,0,0,1,231.12461880559084,1072.3530323731206) translate(44.1 49.125)"/>
    <use xlink:href="#H" transform="matrix(1,0,0,1,231.12461880559084,1072.3530323731206) translate(76 49.125)"/>
    <path d="M128 1067.35c17.67 0 32 17.9 32 40s-14.33 40-32 40H32c-17.67 0-32-17.9-32-40s14.33-40 32-40z" stroke="#333" fill="#fff"/>
    <g>
      <use xlink:href="#i" transform="matrix(1,0,0,1,5,1072.3530323731206) translate(11.850000000000001 27.525)"/>
      <use xlink:href="#j" transform="matrix(1,0,0,1,5,1072.3530323731206) translate(51.2 27.525)"/>
      <use xlink:href="#k" transform="matrix(1,0,0,1,5,1072.3530323731206) translate(85.19999999999999 27.525)"/>
      <use xlink:href="#l" transform="matrix(1,0,0,1,5,1072.3530323731206) translate(56.025 49.125)"/>
    </g>
    <path d="M80.5 1050.47h-1v-58.93h1zm29.05-125.28H92.03l-3 .38-2.77 1.15-2.4 1.83-1.82 2.4-1.14 2.75-.4 3.02v33.22h-1v-33.28l.42-3.22 1.24-3 2-2.6 2.6-2 3-1.23 3.2-.4h17.6z" fill="#333"/>
    <path d="M110.03 925.2h-.5v-1h.55zM80 1065.23l-4.64-14.26h9.28z" fill="#333"/>
    <path d="M80 1066.85l-5.32-16.38h10.64zm-3.95-15.38l3.95 12.15 3.95-12.15z" fill="#333"/>
    <g>
      <use xlink:href="#I" transform="matrix(1,0,0,1,65.325,969.9439173339051) translate(0.005000000000000782 14.4)"/>
    </g>
    <path d="M306.62 1050.47h-1v-65.3h1zm-9.25-125.86l3 1.25 2.6 2 2 2.6 1.23 3 .42 3.2v26.93h-1v-26.86l-.4-3-1.13-2.77-1.85-2.4-2.4-1.82-2.74-1.15-3-.4h-30.26v-1h30.32z" fill="#333"/>
    <path d="M263.85 925.2h-.54l.06-1h.5zM306.12 1065.23l-4.63-14.26h9.26z" fill="#333"/>
    <path d="M306.12 1066.85l-5.32-16.38h10.65zm-3.94-15.38l3.94 12.15 3.95-12.15z" fill="#333"/>
    <g>
      <use xlink:href="#J" transform="matrix(1,0,0,1,294.6496188055908,963.5764935727954) translate(0.005000000000000782 14.4)"/>
    </g>
    <path d="M1231.22 904.7c17.67 0 32 17.9 32 40 0 22.08-14.33 40-32 40h-96c-17.68 0-32-17.92-32-40 0-22.1 14.32-40 32-40z" stroke="#333" fill="#fff"/>
    <g>
      <use xlink:href="#i" transform="matrix(1,0,0,1,1108.2177524641088,909.6887865311) translate(11.850000000000001 27.525)"/>
      <use xlink:href="#j" transform="matrix(1,0,0,1,1108.2177524641088,909.6887865311) translate(51.2 27.525)"/>
      <use xlink:href="#k" transform="matrix(1,0,0,1,1108.2177524641088,909.6887865311) translate(85.19999999999999 27.525)"/>
      <use xlink:href="#l" transform="matrix(1,0,0,1,1108.2177524641088,909.6887865311) translate(56.025 49.125)"/>
    </g>
    <path d="M974.62 904.7c17.67 0 32 17.9 32 40 0 22.08-14.33 40-32 40h-96c-17.67 0-32-17.92-32-40 0-22.1 14.33-40 32-40z" stroke="#333" fill="#fff"/>
    <g>
      <use xlink:href="#i" transform="matrix(1,0,0,1,851.6188714482289,909.6887865311) translate(11.850000000000001 27.525)"/>
      <use xlink:href="#j" transform="matrix(1,0,0,1,851.6188714482289,909.6887865311) translate(51.2 27.525)"/>
      <use xlink:href="#k" transform="matrix(1,0,0,1,851.6188714482289,909.6887865311) translate(85.19999999999999 27.525)"/>
      <use xlink:href="#l" transform="matrix(1,0,0,1,851.6188714482289,909.6887865311) translate(56.025 49.125)"/>
    </g>
    <path d="M1183.72 887.8h-1v-80.24h1zm-9.26-145.85l3 1.24 2.6 1.98 2 2.6 1.24 3 .42 3.2v31.98h-1v-31.9l-.4-3.02-1.14-2.75-1.83-2.4-2.4-1.84-2.75-1.14-3-.4H1131v-1h40.23z" fill="#333"/>
    <path d="M1131.03 742.52h-.53l.04-1h.5zM1183.22 902.57l-4.64-14.27h9.27z" fill="#333"/>
    <path d="M1183.22 904.2l-5.33-16.4h10.64zm-3.95-15.4l3.95 12.15 3.94-12.15z" fill="#333"/>
    <g>
      <use xlink:href="#K" transform="matrix(1,0,0,1,1160.4177524641088,785.9559286778776) translate(0.004999999999999005 14.4)"/>
    </g>
    <path d="M927.12 887.8h-1v-79.2h1zm49.6-145.28h-38.07l-3 .4-2.77 1.14-2.4 1.84-1.82 2.4-1.15 2.74-.38 3.02V787h-1v-33l.42-3.22 1.24-3 2-2.6 2.6-2 3-1.23 3.2-.43h38.15z" fill="#333"/>
    <path d="M977.2 742.52h-.48v-1h.54zM926.62 902.57l-4.64-14.27h9.27z" fill="#333"/>
    <path d="M926.62 904.2l-5.32-16.4h10.64zm-3.95-15.4l3.95 12.15 3.95-12.15z" fill="#333"/>
    <g>
      <use xlink:href="#L" transform="matrix(1,0,0,1,900.1438714482289,786.9988594396373) translate(0.004999999999999005 14.4)"/>
    </g>
    <defs>
      <path fill="#333" d="M30-248c87 1 191-15 191 75 0 78-77 80-158 76V0H30v-248zm33 125c57 0 124 11 124-50 0-59-68-47-124-48v98" id="M"/>
      <path fill="#333" d="M24 0v-261h32V0H24" id="N"/>
      <path fill="#333" d="M141-36C126-15 110 5 73 4 37 3 15-17 15-53c-1-64 63-63 125-63 3-35-9-54-41-54-24 1-41 7-42 31l-33-3c5-37 33-52 76-52 45 0 72 20 72 64v82c-1 20 7 32 28 27v20c-31 9-61-2-59-35zM48-53c0 20 12 33 32 33 41-3 63-29 60-74-43 2-92-5-92 41" id="O"/>
      <path fill="#333" d="M179-190L93 31C79 59 56 82 12 73V49c39 6 53-20 64-50L1-190h34L92-34l54-156h33" id="P"/>
      <path fill="#333" d="M24-231v-30h32v30H24zM24 0v-190h32V0H24" id="Q"/>
      <path fill="#333" d="M117-194c89-4 53 116 60 194h-32v-121c0-31-8-49-39-48C34-167 62-67 57 0H25l-1-190h30c1 10-1 24 2 32 11-22 29-35 61-36" id="R"/>
      <path fill="#333" d="M177-190C167-65 218 103 67 71c-23-6-38-20-44-43l32-5c15 47 100 32 89-28v-30C133-14 115 1 83 1 29 1 15-40 15-95c0-56 16-97 71-98 29-1 48 16 59 35 1-10 0-23 2-32h30zM94-22c36 0 50-32 50-73 0-42-14-75-50-75-39 0-46 34-46 75s6 73 46 73" id="S"/>
      <g id="a">
        <use transform="matrix(0.04938271604938272,0,0,0.04938271604938272,0,0)" xlink:href="#M"/>
        <use transform="matrix(0.04938271604938272,0,0,0.04938271604938272,11.851851851851853,0)" xlink:href="#N"/>
        <use transform="matrix(0.04938271604938272,0,0,0.04938271604938272,15.753086419753087,0)" xlink:href="#O"/>
        <use transform="matrix(0.04938271604938272,0,0,0.04938271604938272,25.629629629629633,0)" xlink:href="#P"/>
        <use transform="matrix(0.04938271604938272,0,0,0.04938271604938272,34.51851851851852,0)" xlink:href="#Q"/>
        <use transform="matrix(0.04938271604938272,0,0,0.04938271604938272,38.41975308641975,0)" xlink:href="#R"/>
        <use transform="matrix(0.04938271604938272,0,0,0.04938271604938272,48.2962962962963,0)" xlink:href="#S"/>
      </g>
      <path fill="#333" d="M127-220V0H93v-220H8v-28h204v28h-85" id="T"/>
      <path fill="#333" d="M100-194c63 0 86 42 84 106H49c0 40 14 67 53 68 26 1 43-12 49-29l28 8c-11 28-37 45-77 45C44 4 14-33 15-96c1-61 26-98 85-98zm52 81c6-60-76-77-97-28-3 7-6 17-6 28h103" id="U"/>
      <path fill="#333" d="M135-143c-3-34-86-38-87 0 15 53 115 12 119 90S17 21 10-45l28-5c4 36 97 45 98 0-10-56-113-15-118-90-4-57 82-63 122-42 12 7 21 19 24 35" id="V"/>
      <g id="b">
        <use transform="matrix(0.04938271604938272,0,0,0.04938271604938272,0,0)" xlink:href="#T"/>
        <use transform="matrix(0.04938271604938272,0,0,0.04938271604938272,8.839506172839506,0)" xlink:href="#U"/>
        <use transform="matrix(0.04938271604938272,0,0,0.04938271604938272,18.71604938271605,0)" xlink:href="#R"/>
        <use transform="matrix(0.04938271604938272,0,0,0.04938271604938272,28.592592592592595,0)" xlink:href="#R"/>
        <use transform="matrix(0.04938271604938272,0,0,0.04938271604938272,38.46913580246914,0)" xlink:href="#Q"/>
        <use transform="matrix(0.04938271604938272,0,0,0.04938271604938272,42.370370370370374,0)" xlink:href="#V"/>
      </g>
      <path fill="#333" d="M30-248c118-7 216 8 213 122C240-48 200 0 122 0H30v-248zM63-27c89 8 146-16 146-99s-60-101-146-95v194" id="W"/>
      <path fill="#333" d="M96-169c-40 0-48 33-48 73s9 75 48 75c24 0 41-14 43-38l32 2c-6 37-31 61-74 61-59 0-76-41-82-99-10-93 101-131 147-64 4 7 5 14 7 22l-32 3c-4-21-16-35-41-35" id="X"/>
      <path fill="#333" d="M100-194c62-1 85 37 85 99 1 63-27 99-86 99S16-35 15-95c0-66 28-99 85-99zM99-20c44 1 53-31 53-75 0-43-8-75-51-75s-53 32-53 75 10 74 51 75" id="Y"/>
      <g id="c">
        <use transform="matrix(0.04938271604938272,0,0,0.04938271604938272,0,0)" xlink:href="#W"/>
        <use transform="matrix(0.04938271604938272,0,0,0.04938271604938272,12.790123456790125,0)" xlink:href="#U"/>
        <use transform="matrix(0.04938271604938272,0,0,0.04938271604938272,22.66666666666667,0)" xlink:href="#X"/>
        <use transform="matrix(0.04938271604938272,0,0,0.04938271604938272,31.555555555555557,0)" xlink:href="#Q"/>
        <use transform="matrix(0.04938271604938272,0,0,0.04938271604938272,35.4567901234568,0)" xlink:href="#V"/>
        <use transform="matrix(0.04938271604938272,0,0,0.04938271604938272,44.345679012345684,0)" xlink:href="#Q"/>
        <use transform="matrix(0.04938271604938272,0,0,0.04938271604938272,48.24691358024692,0)" xlink:href="#Y"/>
        <use transform="matrix(0.04938271604938272,0,0,0.04938271604938272,58.12345679012346,0)" xlink:href="#R"/>
      </g>
      <path fill="#333" d="M114-163C36-179 61-72 57 0H25l-1-190h30c1 12-1 29 2 39 6-27 23-49 58-41v29" id="Z"/>
      <path fill="#fff" d="M100-194c63 0 86 42 84 106H49c0 40 14 67 53 68 26 1 43-12 49-29l28 8c-11 28-37 45-77 45C44 4 14-33 15-96c1-61 26-98 85-98zm52 81c6-60-76-77-97-28-3 7-6 17-6 28h103" id="aa"/>
      <g id="d">
        <use transform="matrix(0.04938271604938272,0,0,0.04938271604938272,0,0)" xlink:href="#T"/>
        <use transform="matrix(0.04938271604938272,0,0,0.04938271604938272,10.17283950617284,0)" xlink:href="#Z"/>
        <use transform="matrix(0.04938271604938272,0,0,0.04938271604938272,16.049382716049383,0)" xlink:href="#U"/>
        <use transform="matrix(0.04938271604938272,0,0,0.04938271604938272,25.925925925925927,0)" xlink:href="#aa"/>
      </g>
      <path fill="#333" d="M197 0v-115H63V0H30v-248h33v105h134v-105h34V0h-34" id="ab"/>
      <path fill="#333" d="M206 0h-36l-40-164L89 0H53L-1-190h32L70-26l43-164h34l41 164 42-164h31" id="ac"/>
      <g id="e">
        <use transform="matrix(0.04938271604938272,0,0,0.04938271604938272,0,0)" xlink:href="#ab"/>
        <use transform="matrix(0.04938271604938272,0,0,0.04938271604938272,12.790123456790125,0)" xlink:href="#Y"/>
        <use transform="matrix(0.04938271604938272,0,0,0.04938271604938272,22.66666666666667,0)" xlink:href="#ac"/>
      </g>
      <g id="f">
        <use transform="matrix(0.04938271604938272,0,0,0.04938271604938272,0,0)" xlink:href="#Q"/>
        <use transform="matrix(0.04938271604938272,0,0,0.04938271604938272,3.901234567901235,0)" xlink:href="#V"/>
      </g>
      <path fill="#333" d="M59-47c-2 24 18 29 38 22v24C64 9 27 4 27-40v-127H5v-23h24l9-43h21v43h35v23H59v120" id="ad"/>
      <path fill="#333" d="M106-169C34-169 62-67 57 0H25v-261h32l-1 103c12-21 28-36 61-36 89 0 53 116 60 194h-32v-121c2-32-8-49-39-48" id="ae"/>
      <g id="g">
        <use transform="matrix(0.04938271604938272,0,0,0.04938271604938272,0,0)" xlink:href="#ad"/>
        <use transform="matrix(0.04938271604938272,0,0,0.04938271604938272,4.938271604938272,0)" xlink:href="#ae"/>
        <use transform="matrix(0.04938271604938272,0,0,0.04938271604938272,14.814814814814817,0)" xlink:href="#U"/>
      </g>
      <g id="h">
        <use transform="matrix(0.04938271604938272,0,0,0.04938271604938272,0,0)" xlink:href="#ac"/>
        <use transform="matrix(0.04938271604938272,0,0,0.04938271604938272,12.790123456790125,0)" xlink:href="#U"/>
        <use transform="matrix(0.04938271604938272,0,0,0.04938271604938272,22.66666666666667,0)" xlink:href="#O"/>
        <use transform="matrix(0.04938271604938272,0,0,0.04938271604938272,32.543209876543216,0)" xlink:href="#ad"/>
        <use transform="matrix(0.04938271604938272,0,0,0.04938271604938272,37.48148148148149,0)" xlink:href="#ae"/>
        <use transform="matrix(0.04938271604938272,0,0,0.04938271604938272,47.35802469135803,0)" xlink:href="#U"/>
        <use transform="matrix(0.04938271604938272,0,0,0.04938271604938272,57.23456790123457,0)" xlink:href="#Z"/>
      </g>
      <path fill="#333" d="M137-103V0h-34v-103L8-248h37l75 118 75-118h37" id="af"/>
      <path fill="#333" d="M68-38c1 34 0 65-14 84H32c9-13 17-26 17-46H33v-38h35" id="ag"/>
      <g id="i">
        <use transform="matrix(0.05,0,0,0.05,0,0)" xlink:href="#af"/>
        <use transform="matrix(0.05,0,0,0.05,10.35,0)" xlink:href="#U"/>
        <use transform="matrix(0.05,0,0,0.05,20.35,0)" xlink:href="#V"/>
        <use transform="matrix(0.05,0,0,0.05,29.35,0)" xlink:href="#ag"/>
      </g>
      <path fill="#333" d="M84 4C-5 8 30-112 23-190h32v120c0 31 7 50 39 49 72-2 45-101 50-169h31l1 190h-30c-1-10 1-25-2-33-11 22-28 36-60 37" id="ah"/>
      <g id="j">
        <use transform="matrix(0.05,0,0,0.05,0,0)" xlink:href="#P"/>
        <use transform="matrix(0.05,0,0,0.05,9,0)" xlink:href="#Y"/>
        <use transform="matrix(0.05,0,0,0.05,19,0)" xlink:href="#ah"/>
      </g>
      <path fill="#333" d="M85-194c31 0 48 13 60 33l-1-100h32l1 261h-30c-2-10 0-23-3-31C134-8 116 4 85 4 32 4 16-35 15-94c0-66 23-100 70-100zm9 24c-40 0-46 34-46 75 0 40 6 74 45 74 42 0 51-32 51-76 0-42-9-74-50-73" id="ai"/>
      <g id="k">
        <use transform="matrix(0.05,0,0,0.05,0,0)" xlink:href="#V"/>
        <use transform="matrix(0.05,0,0,0.05,9,0)" xlink:href="#ae"/>
        <use transform="matrix(0.05,0,0,0.05,19,0)" xlink:href="#Y"/>
        <use transform="matrix(0.05,0,0,0.05,29,0)" xlink:href="#ah"/>
        <use transform="matrix(0.05,0,0,0.05,39,0)" xlink:href="#N"/>
        <use transform="matrix(0.05,0,0,0.05,42.95,0)" xlink:href="#ai"/>
      </g>
      <path fill="#333" d="M115-194c55 1 70 41 70 98S169 2 115 4C84 4 66-9 55-30l1 105H24l-1-265h31l2 30c10-21 28-34 59-34zm-8 174c40 0 45-34 45-75s-6-73-45-74c-42 0-51 32-51 76 0 43 10 73 51 73" id="aj"/>
      <path fill="#333" d="M63-70H37l-4-178h34zM33 0v-35h34V0H33" id="ak"/>
      <g id="l">
        <use transform="matrix(0.05,0,0,0.05,0,0)" xlink:href="#aj"/>
        <use transform="matrix(0.05,0,0,0.05,10,0)" xlink:href="#N"/>
        <use transform="matrix(0.05,0,0,0.05,13.949999999999998,0)" xlink:href="#O"/>
        <use transform="matrix(0.05,0,0,0.05,23.95,0)" xlink:href="#P"/>
        <use transform="matrix(0.05,0,0,0.05,32.95,0)" xlink:href="#ak"/>
      </g>
      <path fill="#333" d="M140-251c81 0 123 46 123 126C263-46 219 4 140 4 59 4 17-45 17-125s42-126 123-126zm0 227c63 0 89-41 89-101s-29-99-89-99c-61 0-89 39-89 99S79-25 140-24" id="al"/>
      <path fill="#333" d="M108 0H70L1-190h34L89-25l56-165h34" id="am"/>
      <g id="m">
        <use transform="matrix(0.05,0,0,0.05,0,0)" xlink:href="#al"/>
        <use transform="matrix(0.05,0,0,0.05,14,0)" xlink:href="#am"/>
        <use transform="matrix(0.05,0,0,0.05,23,0)" xlink:href="#U"/>
        <use transform="matrix(0.05,0,0,0.05,33,0)" xlink:href="#Z"/>
        <use transform="matrix(0.05,0,0,0.05,38.95,0)" xlink:href="#X"/>
        <use transform="matrix(0.05,0,0,0.05,47.95,0)" xlink:href="#O"/>
        <use transform="matrix(0.05,0,0,0.05,57.95,0)" xlink:href="#V"/>
        <use transform="matrix(0.05,0,0,0.05,66.95,0)" xlink:href="#ad"/>
      </g>
      <g id="o">
        <use transform="matrix(0.05,0,0,0.05,0,0)" xlink:href="#ab"/>
        <use transform="matrix(0.05,0,0,0.05,12.950000000000001,0)" xlink:href="#Y"/>
        <use transform="matrix(0.05,0,0,0.05,22.950000000000003,0)" xlink:href="#ac"/>
      </g>
      <g id="p">
        <use transform="matrix(0.05,0,0,0.05,0,0)" xlink:href="#Q"/>
        <use transform="matrix(0.05,0,0,0.05,3.95,0)" xlink:href="#V"/>
      </g>
      <g id="q">
        <use transform="matrix(0.05,0,0,0.05,0,0)" xlink:href="#ad"/>
        <use transform="matrix(0.05,0,0,0.05,5,0)" xlink:href="#ae"/>
        <use transform="matrix(0.05,0,0,0.05,15,0)" xlink:href="#U"/>
      </g>
      <path fill="#333" d="M103-251c84 0 111 97 45 133-19 10-37 24-39 52H78c0-63 77-55 77-114 0-30-21-42-52-43-32 0-53 17-56 46l-32-2c7-45 34-72 88-72zM77 0v-35h34V0H77" id="an"/>
      <g id="r">
        <use transform="matrix(0.05,0,0,0.05,0,0)" xlink:href="#ac"/>
        <use transform="matrix(0.05,0,0,0.05,12.950000000000001,0)" xlink:href="#Q"/>
        <use transform="matrix(0.05,0,0,0.05,16.900000000000002,0)" xlink:href="#R"/>
        <use transform="matrix(0.05,0,0,0.05,26.900000000000002,0)" xlink:href="#ai"/>
        <use transform="matrix(0.05,0,0,0.05,36.900000000000006,0)" xlink:href="#an"/>
      </g>
      <path fill="#333" d="M210-169c-67 3-38 105-44 169h-31v-121c0-29-5-50-35-48C34-165 62-65 56 0H25l-1-190h30c1 10-1 24 2 32 10-44 99-50 107 0 11-21 27-35 58-36 85-2 47 119 55 194h-31v-121c0-29-5-49-35-48" id="ao"/>
      <g id="s">
        <use transform="matrix(0.05,0,0,0.05,0,0)" xlink:href="#ae"/>
        <use transform="matrix(0.05,0,0,0.05,10,0)" xlink:href="#ah"/>
        <use transform="matrix(0.05,0,0,0.05,20,0)" xlink:href="#ao"/>
        <use transform="matrix(0.05,0,0,0.05,34.95,0)" xlink:href="#Q"/>
        <use transform="matrix(0.05,0,0,0.05,38.900000000000006,0)" xlink:href="#ai"/>
        <use transform="matrix(0.05,0,0,0.05,48.900000000000006,0)" xlink:href="#Q"/>
        <use transform="matrix(0.05,0,0,0.05,52.85,0)" xlink:href="#ad"/>
        <use transform="matrix(0.05,0,0,0.05,57.85,0)" xlink:href="#P"/>
        <use transform="matrix(0.05,0,0,0.05,66.85000000000001,0)" xlink:href="#an"/>
      </g>
      <path fill="#333" d="M185-189c-5-48-123-54-124 2 14 75 158 14 163 119 3 78-121 87-175 55-17-10-28-26-33-46l33-7c5 56 141 63 141-1 0-78-155-14-162-118-5-82 145-84 179-34 5 7 8 16 11 25" id="ap"/>
      <g id="t">
        <use transform="matrix(0.05,0,0,0.05,0,0)" xlink:href="#ap"/>
        <use transform="matrix(0.05,0,0,0.05,12,0)" xlink:href="#ah"/>
        <use transform="matrix(0.05,0,0,0.05,22,0)" xlink:href="#R"/>
        <use transform="matrix(0.05,0,0,0.05,32,0)" xlink:href="#R"/>
        <use transform="matrix(0.05,0,0,0.05,42,0)" xlink:href="#P"/>
      </g>
      <path fill="#333" d="M233-177c-1 41-23 64-60 70L243 0h-38l-65-103H63V0H30v-248c88 3 205-21 203 71zM63-129c60-2 137 13 137-47 0-61-80-42-137-45v92" id="aq"/>
      <g id="u">
        <use transform="matrix(0.05,0,0,0.05,0,0)" xlink:href="#aq"/>
        <use transform="matrix(0.05,0,0,0.05,12.950000000000001,0)" xlink:href="#O"/>
        <use transform="matrix(0.05,0,0,0.05,22.950000000000003,0)" xlink:href="#Q"/>
        <use transform="matrix(0.05,0,0,0.05,26.900000000000002,0)" xlink:href="#R"/>
        <use transform="matrix(0.05,0,0,0.05,36.900000000000006,0)" xlink:href="#P"/>
      </g>
      <path fill="#333" d="M205 0l-28-72H64L36 0H1l101-248h38L239 0h-34zm-38-99l-47-123c-12 45-31 82-46 123h93" id="ar"/>
      <g id="v">
        <use transform="matrix(0.05,0,0,0.05,0,0)" xlink:href="#ar"/>
        <use transform="matrix(0.05,0,0,0.05,12,0)" xlink:href="#Z"/>
        <use transform="matrix(0.05,0,0,0.05,17.95,0)" xlink:href="#U"/>
      </g>
      <g id="w">
        <use transform="matrix(0.05,0,0,0.05,0,0)" xlink:href="#ad"/>
        <use transform="matrix(0.05,0,0,0.05,5,0)" xlink:href="#ae"/>
        <use transform="matrix(0.05,0,0,0.05,15,0)" xlink:href="#U"/>
        <use transform="matrix(0.05,0,0,0.05,25,0)" xlink:href="#Z"/>
        <use transform="matrix(0.05,0,0,0.05,30.950000000000003,0)" xlink:href="#U"/>
      </g>
      <path fill="#333" d="M143 0L79-87 56-68V0H24v-261h32v163l83-92h37l-77 82L181 0h-38" id="as"/>
      <g id="x">
        <use transform="matrix(0.05,0,0,0.05,0,0)" xlink:href="#ai"/>
        <use transform="matrix(0.05,0,0,0.05,10,0)" xlink:href="#O"/>
        <use transform="matrix(0.05,0,0,0.05,20,0)" xlink:href="#Z"/>
        <use transform="matrix(0.05,0,0,0.05,25.950000000000003,0)" xlink:href="#as"/>
      </g>
      <g id="y">
        <use transform="matrix(0.05,0,0,0.05,0,0)" xlink:href="#X"/>
        <use transform="matrix(0.05,0,0,0.05,9,0)" xlink:href="#N"/>
        <use transform="matrix(0.05,0,0,0.05,12.949999999999998,0)" xlink:href="#Y"/>
        <use transform="matrix(0.05,0,0,0.05,22.95,0)" xlink:href="#ah"/>
        <use transform="matrix(0.05,0,0,0.05,32.95,0)" xlink:href="#ai"/>
        <use transform="matrix(0.05,0,0,0.05,42.95,0)" xlink:href="#V"/>
      </g>
      <g id="z">
        <use transform="matrix(0.05,0,0,0.05,0,0)" xlink:href="#Q"/>
        <use transform="matrix(0.05,0,0,0.05,3.95,0)" xlink:href="#R"/>
      </g>
      <g id="A">
        <use transform="matrix(0.05,0,0,0.05,0,0)" xlink:href="#ap"/>
        <use transform="matrix(0.05,0,0,0.05,12,0)" xlink:href="#as"/>
        <use transform="matrix(0.05,0,0,0.05,21,0)" xlink:href="#P"/>
      </g>
      <path fill="#333" d="M190 0L58-211 59 0H30v-248h39L202-35l-2-213h31V0h-41" id="at"/>
      <g id="B">
        <use transform="matrix(0.05,0,0,0.05,0,0)" xlink:href="#at"/>
        <use transform="matrix(0.05,0,0,0.05,12.950000000000001,0)" xlink:href="#Y"/>
        <use transform="matrix(0.05,0,0,0.05,22.950000000000003,0)" xlink:href="#Z"/>
        <use transform="matrix(0.05,0,0,0.05,28.900000000000002,0)" xlink:href="#ao"/>
        <use transform="matrix(0.05,0,0,0.05,43.85,0)" xlink:href="#O"/>
        <use transform="matrix(0.05,0,0,0.05,53.85,0)" xlink:href="#N"/>
      </g>
      <g id="C">
        <use transform="matrix(0.05,0,0,0.05,0,0)" xlink:href="#ab"/>
        <use transform="matrix(0.05,0,0,0.05,12.950000000000001,0)" xlink:href="#Q"/>
        <use transform="matrix(0.05,0,0,0.05,16.900000000000002,0)" xlink:href="#S"/>
        <use transform="matrix(0.05,0,0,0.05,26.900000000000002,0)" xlink:href="#ae"/>
      </g>
      <path fill="#333" d="M47-170H22l-4-78h33" id="au"/>
      <g id="D">
        <use transform="matrix(0.05,0,0,0.05,0,0)" xlink:href="#W"/>
        <use transform="matrix(0.05,0,0,0.05,12.950000000000001,0)" xlink:href="#Y"/>
        <use transform="matrix(0.05,0,0,0.05,22.950000000000003,0)" xlink:href="#R"/>
        <use transform="matrix(0.05,0,0,0.05,32.95,0)" xlink:href="#au"/>
        <use transform="matrix(0.05,0,0,0.05,36.35,0)" xlink:href="#ad"/>
      </g>
      <g id="E">
        <use transform="matrix(0.05,0,0,0.05,0,0)" xlink:href="#aj"/>
        <use transform="matrix(0.05,0,0,0.05,10,0)" xlink:href="#N"/>
        <use transform="matrix(0.05,0,0,0.05,13.949999999999998,0)" xlink:href="#O"/>
        <use transform="matrix(0.05,0,0,0.05,23.95,0)" xlink:href="#P"/>
        <use transform="matrix(0.05,0,0,0.05,31.599999999999994,0)" xlink:href="#ag"/>
      </g>
      <g id="F">
        <use transform="matrix(0.05,0,0,0.05,0,0)" xlink:href="#N"/>
        <use transform="matrix(0.05,0,0,0.05,3.95,0)" xlink:href="#Y"/>
        <use transform="matrix(0.05,0,0,0.05,13.949999999999998,0)" xlink:href="#Y"/>
        <use transform="matrix(0.05,0,0,0.05,23.95,0)" xlink:href="#as"/>
        <use transform="matrix(0.05,0,0,0.05,32.95,0)" xlink:href="#V"/>
      </g>
      <g id="G">
        <use transform="matrix(0.05,0,0,0.05,0,0)" xlink:href="#N"/>
        <use transform="matrix(0.05,0,0,0.05,3.95,0)" xlink:href="#Q"/>
        <use transform="matrix(0.05,0,0,0.05,7.9,0)" xlink:href="#as"/>
        <use transform="matrix(0.05,0,0,0.05,16.9,0)" xlink:href="#U"/>
      </g>
      <g id="H">
        <use transform="matrix(0.05,0,0,0.05,0,0)" xlink:href="#Z"/>
        <use transform="matrix(0.05,0,0,0.05,5.95,0)" xlink:href="#O"/>
        <use transform="matrix(0.05,0,0,0.05,15.949999999999998,0)" xlink:href="#Q"/>
        <use transform="matrix(0.05,0,0,0.05,19.9,0)" xlink:href="#R"/>
      </g>
      <g id="I">
        <use transform="matrix(0.05,0,0,0.05,0,0)" xlink:href="#af"/>
        <use transform="matrix(0.05,0,0,0.05,10.35,0)" xlink:href="#U"/>
        <use transform="matrix(0.05,0,0,0.05,20.35,0)" xlink:href="#V"/>
      </g>
      <g id="J">
        <use transform="matrix(0.05,0,0,0.05,0,0)" xlink:href="#at"/>
        <use transform="matrix(0.05,0,0,0.05,12.950000000000001,0)" xlink:href="#Y"/>
      </g>
      <path fill="#333" d="M266 0h-40l-56-210L115 0H75L2-248h35L96-30l15-64 43-154h32l59 218 59-218h35" id="av"/>
      <g id="K">
        <use transform="matrix(0.05,0,0,0.05,0,0)" xlink:href="#av"/>
        <use transform="matrix(0.05,0,0,0.05,16.599999999999998,0)" xlink:href="#U"/>
        <use transform="matrix(0.05,0,0,0.05,26.599999999999994,0)" xlink:href="#O"/>
        <use transform="matrix(0.05,0,0,0.05,36.599999999999994,0)" xlink:href="#as"/>
      </g>
      <g id="L">
        <use transform="matrix(0.05,0,0,0.05,0,0)" xlink:href="#ap"/>
        <use transform="matrix(0.05,0,0,0.05,12,0)" xlink:href="#ad"/>
        <use transform="matrix(0.05,0,0,0.05,17,0)" xlink:href="#Z"/>
        <use transform="matrix(0.05,0,0,0.05,22.95,0)" xlink:href="#Y"/>
        <use transform="matrix(0.05,0,0,0.05,32.95,0)" xlink:href="#R"/>
        <use transform="matrix(0.05,0,0,0.05,42.95,0)" xlink:href="#S"/>
      </g>
    </defs>
  </g>
</svg>
